# xmcd
#
# Track frame offsets:
#	150
#	15618
#	29535
#	47647
#	67668
#	83541
#	98516
#	113677
#	134312
#	145992
#	163754
#	178612
#	191356
#	210136
#	230933
#	251751
#	280400
#
# Disc length: 3891 seconds
#
# Revision: 1
# Processed by: cddbd v1.4PL0 Copyright (c) Steve Scherf et al.
# Submitted via: audiograbber 1.80
#
DISCID=e00f3111
DTITLE=Various Artist - Hott Country 025
DYEAR=1900
DGENRE=
TTITLE0=Alan Jackson - A House With No Curtains
TTITLE1=Trace Adkins - Lonely Won't Leave Me Alone
TTITLE2=Mindy McCready - You'll Never Know
TTITLE3=Sons Of The Desert - Leaving October Behind
TTITLE4=John Anderson - Takin' The Country Back
TTITLE5=Michael Peterson - Too Good Too Be True
TTITLE6=Lonestar - Say When
TTITLE7=Patty Loveless - To Have You Back Again
TTITLE8=Sherrie Austin - Put Your Heart Into It
TTITLE9=Toby Keith - Dream Walkin'
TTITLE10=Alabama - She's Got That Look In Her Eye
TTITLE11=Duane Steele - If I Could Just Get To You
TTITLE12=Charlie Major - Some Days Are Better
TTITLE13=Lee Roy Parnell - All That Matters Anymore
TTITLE14=Ricochet - Connected AT The Heart
TTITLE15=Scooter Lee - In The Name Of Love
TTITLE16=Data - Data Track
EXTD=
EXTT0=
EXTT1=
EXTT2=
EXTT3=
EXTT4=
EXTT5=
EXTT6=
EXTT7=
EXTT8=
EXTT9=
EXTT10=
EXTT11=
EXTT12=
EXTT13=
EXTT14=
EXTT15=
EXTT16=
PLAYORDER=
